<?xml version="1.0" encoding="utf-8"?>
<!-- Generator: Adobe Illustrator 19.0.0, SVG Export Plug-In . SVG Version: 6.00 Build 0)  -->
<svg version="1.1" id="Layer_1" xmlns="http://www.w3.org/2000/svg" xmlns:xlink="http://www.w3.org/1999/xlink" x="0px" y="0px"
	 viewBox="0 0 200 77.9" style="enable-background:new 0 0 200 77.9;" xml:space="preserve">
<style type="text/css">
	.st0{fill:#FFFFFF;}
	.st1{fill:#333E48;}
	.st2{fill:#E95A4F;}
</style>
<g id="XMLID_10_">
	<rect id="XMLID_9_" class="st0" width="200" height="77.9"/>
	<g id="XMLID_2_">
		<g id="XMLID_139_">
			<path id="XMLID_193_" class="st1" d="M37.3,49.7c-0.2,0.3-0.3,0.6-0.6,0.8c-0.2,0.2-0.5,0.4-0.7,0.6c-0.2,0.1-0.5,0.3-0.8,0.3
				c-0.3,0.1-0.5,0.1-0.8,0.1c-0.4,0-0.8-0.1-1.2-0.2c-0.4-0.2-0.7-0.4-1-0.7c-0.3-0.3-0.5-0.6-0.6-1c-0.2-0.4-0.2-0.8-0.2-1.2
				c0-0.4,0.1-0.8,0.2-1.2c0.2-0.4,0.4-0.7,0.6-1c0.3-0.3,0.6-0.5,1-0.7c0.4-0.2,0.8-0.2,1.2-0.2c0.2,0,0.5,0,0.7,0.1
				c0.2,0.1,0.5,0.1,0.7,0.3c0.2,0.1,0.5,0.3,0.7,0.5c0.2,0.2,0.4,0.4,0.6,0.7c-0.1,0.1-0.3,0.2-0.4,0.3c-0.1,0.1-0.3,0.2-0.4,0.3
				c-0.2-0.4-0.5-0.7-0.8-0.8c-0.3-0.2-0.6-0.3-1-0.3c-0.3,0-0.5,0.1-0.8,0.2c-0.2,0.1-0.5,0.3-0.6,0.4c-0.2,0.2-0.3,0.4-0.4,0.6
				c-0.1,0.2-0.2,0.5-0.2,0.8c0,0.3,0.1,0.5,0.2,0.8c0.1,0.2,0.3,0.5,0.4,0.6c0.2,0.2,0.4,0.3,0.6,0.4c0.2,0.1,0.5,0.2,0.8,0.2
				c0.2,0,0.3,0,0.5-0.1c0.2,0,0.4-0.1,0.5-0.2s0.3-0.2,0.5-0.4c0.1-0.2,0.3-0.4,0.3-0.6L37.3,49.7z"/>
			<path id="XMLID_190_" class="st1" d="M44.7,48.5c0,0.4-0.1,0.8-0.2,1.2c-0.2,0.4-0.4,0.7-0.7,1s-0.6,0.5-1,0.6
				c-0.4,0.2-0.8,0.2-1.2,0.2c-0.4,0-0.8-0.1-1.2-0.2c-0.4-0.2-0.7-0.4-1-0.7c-0.3-0.3-0.5-0.6-0.6-1c-0.2-0.4-0.2-0.8-0.2-1.2
				c0-0.4,0.1-0.8,0.2-1.2c0.2-0.4,0.4-0.7,0.6-1c0.3-0.3,0.6-0.5,1-0.7c0.4-0.2,0.8-0.2,1.2-0.2s0.8,0.1,1.2,0.2
				c0.4,0.2,0.7,0.4,1,0.7c0.3,0.3,0.5,0.6,0.6,1C44.6,47.7,44.7,48.1,44.7,48.5z M43.7,48.5c0-0.3-0.1-0.5-0.2-0.8
				c-0.1-0.2-0.3-0.5-0.4-0.6c-0.2-0.2-0.4-0.3-0.6-0.4c-0.2-0.1-0.5-0.2-0.8-0.2s-0.5,0.1-0.8,0.2c-0.2,0.1-0.5,0.2-0.6,0.4
				c-0.2,0.2-0.3,0.4-0.4,0.6c-0.1,0.2-0.2,0.5-0.2,0.8c0,0.3,0.1,0.5,0.2,0.8c0.1,0.2,0.3,0.5,0.4,0.6c0.2,0.2,0.4,0.3,0.6,0.4
				c0.2,0.1,0.5,0.2,0.8,0.2c0.3,0,0.5-0.1,0.7-0.2c0.2-0.1,0.5-0.2,0.6-0.4c0.2-0.2,0.3-0.4,0.4-0.6C43.6,49,43.7,48.8,43.7,48.5z"
				/>
			<path id="XMLID_188_" class="st1" d="M52.1,49.7c-0.2,0.3-0.3,0.6-0.6,0.8c-0.2,0.2-0.5,0.4-0.7,0.6c-0.2,0.1-0.5,0.3-0.8,0.3
				c-0.3,0.1-0.5,0.1-0.8,0.1c-0.4,0-0.8-0.1-1.2-0.2c-0.4-0.2-0.7-0.4-1-0.7c-0.3-0.3-0.5-0.6-0.6-1c-0.2-0.4-0.2-0.8-0.2-1.2
				c0-0.4,0.1-0.8,0.2-1.2c0.2-0.4,0.4-0.7,0.6-1c0.3-0.3,0.6-0.5,1-0.7c0.4-0.2,0.8-0.2,1.2-0.2c0.2,0,0.5,0,0.7,0.1
				c0.2,0.1,0.5,0.1,0.7,0.3c0.2,0.1,0.5,0.3,0.7,0.5c0.2,0.2,0.4,0.4,0.6,0.7c-0.1,0.1-0.3,0.2-0.4,0.3c-0.1,0.1-0.3,0.2-0.4,0.3
				c-0.2-0.4-0.5-0.7-0.8-0.8c-0.3-0.2-0.6-0.3-1-0.3c-0.3,0-0.5,0.1-0.8,0.2c-0.2,0.1-0.5,0.3-0.6,0.4c-0.2,0.2-0.3,0.4-0.4,0.6
				c-0.1,0.2-0.2,0.5-0.2,0.8c0,0.3,0.1,0.5,0.2,0.8c0.1,0.2,0.3,0.5,0.4,0.6c0.2,0.2,0.4,0.3,0.6,0.4c0.2,0.1,0.5,0.2,0.8,0.2
				c0.2,0,0.3,0,0.5-0.1c0.2,0,0.4-0.1,0.5-0.2s0.3-0.2,0.5-0.4c0.1-0.2,0.3-0.4,0.3-0.6L52.1,49.7z"/>
			<path id="XMLID_186_" class="st1" d="M54.4,51.5h-1v-6.1h1V51.5z"/>
			<path id="XMLID_184_" class="st1" d="M61.2,51.5L57.1,48v3.6h-1v-6.1l4.1,3.6v-3.6h1V51.5z"/>
			<path id="XMLID_181_" class="st1" d="M68.1,51.5h-1l-0.4-1h-2.3l-0.4,1h-1l2.6-6L68.1,51.5z M66.3,49.6l-0.7-1.7l-0.7,1.7H66.3z"
				/>
			<path id="XMLID_178_" class="st1" d="M76.8,48.5c0,0.3,0,0.6-0.1,0.8c-0.1,0.3-0.2,0.6-0.4,0.8c-0.2,0.3-0.4,0.5-0.7,0.7
				c-0.3,0.2-0.6,0.4-1,0.5c0,0-0.1,0-0.2,0c-0.1,0-0.1,0-0.2,0c-0.1,0-0.1,0-0.2,0c-0.1,0-0.1,0-0.1,0h-2.3v-6.1h2.3
				c0,0,0.1,0,0.2,0c0.1,0,0.2,0,0.3,0.1s0.2,0.1,0.3,0.1c0.1,0,0.1,0,0.2,0.1c0.3,0.1,0.6,0.3,0.9,0.5c0.2,0.2,0.4,0.4,0.6,0.7
				c0.2,0.2,0.3,0.5,0.3,0.8C76.7,48,76.8,48.2,76.8,48.5z M75.7,48.5c0-0.3-0.1-0.5-0.2-0.7c-0.1-0.2-0.2-0.5-0.4-0.6
				c-0.2-0.2-0.4-0.3-0.6-0.4c-0.2-0.1-0.5-0.2-0.8-0.2h-1.1v4h1.1c0.3,0,0.5-0.1,0.8-0.2c0.2-0.1,0.5-0.2,0.7-0.4
				c0.2-0.2,0.3-0.4,0.4-0.6C75.7,49.1,75.7,48.8,75.7,48.5z"/>
			<path id="XMLID_176_" class="st1" d="M82.3,51.5h-4.4v-6.1h4.4v1h-3.4v1.3h2.4v1.1h-2.4v1.6h3.4V51.5z"/>
			<path id="XMLID_172_" class="st1" d="M90.7,49.7c0,0.3-0.1,0.5-0.2,0.7c-0.1,0.2-0.2,0.4-0.4,0.6c-0.2,0.2-0.3,0.3-0.5,0.4
				c-0.2,0.1-0.4,0.1-0.6,0.1H86v-6.1h2.3c0,0,0.1,0,0.2,0c0.1,0,0.1,0,0.2,0c0.2,0.1,0.4,0.1,0.6,0.3c0.2,0.1,0.3,0.3,0.4,0.4
				c0.1,0.1,0.2,0.3,0.2,0.5c0.1,0.2,0.1,0.3,0.1,0.5c0,0,0,0.1,0,0.2c0,0.1,0,0.1,0,0.2c0,0.1,0,0.2-0.1,0.3c0,0.1-0.1,0.2-0.1,0.2
				c0.2,0.1,0.4,0.3,0.5,0.4c0.1,0.1,0.2,0.3,0.3,0.4c0.1,0.1,0.1,0.3,0.2,0.4C90.6,49.4,90.7,49.6,90.7,49.7z M88.8,47.2
				c0-0.1,0-0.2-0.1-0.3c-0.1-0.1-0.2-0.2-0.3-0.3c0,0,0,0-0.1,0c0,0-0.1,0-0.1,0H87v1.3h1.2c0.1,0,0.2,0,0.2-0.1
				c0.1,0,0.1-0.1,0.2-0.2c0.1-0.1,0.1-0.1,0.1-0.2C88.8,47.3,88.8,47.2,88.8,47.2z M89.6,49.7c0-0.1,0-0.2-0.1-0.2
				c0-0.1-0.1-0.2-0.1-0.3c-0.1-0.1-0.1-0.1-0.2-0.2c-0.1-0.1-0.2-0.1-0.3-0.1H87v1.6h1.9c0.1,0,0.2,0,0.3-0.1
				c0.1-0.1,0.2-0.1,0.2-0.2c0.1-0.1,0.1-0.2,0.1-0.3C89.6,49.9,89.6,49.8,89.6,49.7z"/>
			<path id="XMLID_169_" class="st1" d="M97.2,51.5h-1l-0.4-1h-2.3l-0.4,1h-1l2.6-6L97.2,51.5z M95.4,49.6l-0.7-1.7L94,49.6H95.4z"
				/>
			<path id="XMLID_167_" class="st1" d="M102,50c0,0,0,0.1,0,0.2c0,0.1,0,0.2-0.1,0.3c-0.1,0.2-0.2,0.4-0.3,0.5
				c-0.1,0.1-0.3,0.3-0.4,0.4c-0.2,0.1-0.3,0.2-0.5,0.2c-0.2,0-0.3,0.1-0.5,0.1c-0.2,0-0.4,0-0.6-0.1c-0.2-0.1-0.4-0.2-0.5-0.3
				c-0.2-0.1-0.3-0.3-0.4-0.5c-0.1-0.2-0.2-0.4-0.2-0.7h1c0,0.1,0.1,0.2,0.1,0.3c0.1,0.1,0.1,0.1,0.2,0.2c0.1,0,0.1,0.1,0.2,0.1
				c0.1,0,0.1,0,0.2,0c0.1,0,0.2,0,0.3-0.1c0.1,0,0.2-0.1,0.2-0.2c0.1-0.1,0.1-0.1,0.2-0.2c0-0.1,0.1-0.2,0.1-0.3v-4.4h1V50z"/>
			<path id="XMLID_164_" class="st1" d="M108.9,51.5h-1l-0.4-1h-2.3l-0.4,1h-1l2.6-6L108.9,51.5z M107.1,49.6l-0.7-1.7l-0.7,1.7
				H107.1z"/>
			<path id="XMLID_162_" class="st1" d="M118.2,49.7c-0.2,0.3-0.3,0.6-0.6,0.8c-0.2,0.2-0.5,0.4-0.7,0.6c-0.2,0.1-0.5,0.3-0.8,0.3
				c-0.3,0.1-0.5,0.1-0.8,0.1c-0.4,0-0.8-0.1-1.2-0.2c-0.4-0.2-0.7-0.4-1-0.7c-0.3-0.3-0.5-0.6-0.6-1c-0.2-0.4-0.2-0.8-0.2-1.2
				c0-0.4,0.1-0.8,0.2-1.2c0.2-0.4,0.4-0.7,0.6-1c0.3-0.3,0.6-0.5,1-0.7c0.4-0.2,0.8-0.2,1.2-0.2c0.2,0,0.5,0,0.7,0.1
				c0.2,0.1,0.5,0.1,0.7,0.3c0.2,0.1,0.5,0.3,0.7,0.5c0.2,0.2,0.4,0.4,0.6,0.7c-0.1,0.1-0.3,0.2-0.4,0.3c-0.1,0.1-0.3,0.2-0.4,0.3
				c-0.2-0.4-0.5-0.7-0.8-0.8c-0.3-0.2-0.6-0.3-1-0.3c-0.3,0-0.5,0.1-0.8,0.2c-0.2,0.1-0.5,0.3-0.6,0.4c-0.2,0.2-0.3,0.4-0.4,0.6
				c-0.1,0.2-0.2,0.5-0.2,0.8c0,0.3,0.1,0.5,0.2,0.8c0.1,0.2,0.3,0.5,0.4,0.6c0.2,0.2,0.4,0.3,0.6,0.4c0.2,0.1,0.5,0.2,0.8,0.2
				c0.2,0,0.3,0,0.5-0.1c0.2,0,0.4-0.1,0.5-0.2c0.2-0.1,0.3-0.2,0.5-0.4c0.1-0.2,0.3-0.4,0.3-0.6L118.2,49.7z"/>
			<path id="XMLID_159_" class="st1" d="M124.8,51.5h-1l-0.4-1h-2.3l-0.4,1h-1l2.6-6L124.8,51.5z M122.9,49.6l-0.7-1.7l-0.7,1.7
				H122.9z"/>
			<path id="XMLID_157_" class="st1" d="M130.1,51.5H126v-6.1h1v5.1h3.1V51.5z"/>
			<path id="XMLID_155_" class="st1" d="M132.7,51.5h-1v-6.1h1V51.5z"/>
			<path id="XMLID_153_" class="st1" d="M138.7,46.5h-3.4v1.3h2.4v1.1h-2.4v2.7h-1v-6.1h4.4V46.5z"/>
			<path id="XMLID_150_" class="st1" d="M146.2,48.5c0,0.4-0.1,0.8-0.2,1.2c-0.2,0.4-0.4,0.7-0.7,1c-0.3,0.3-0.6,0.5-1,0.6
				c-0.4,0.2-0.8,0.2-1.2,0.2c-0.4,0-0.8-0.1-1.2-0.2c-0.4-0.2-0.7-0.4-1-0.7c-0.3-0.3-0.5-0.6-0.6-1c-0.2-0.4-0.2-0.8-0.2-1.2
				c0-0.4,0.1-0.8,0.2-1.2c0.2-0.4,0.4-0.7,0.6-1c0.3-0.3,0.6-0.5,1-0.7c0.4-0.2,0.8-0.2,1.2-0.2s0.8,0.1,1.2,0.2
				c0.4,0.2,0.7,0.4,1,0.7c0.3,0.3,0.5,0.6,0.6,1C146.1,47.7,146.2,48.1,146.2,48.5z M145.1,48.5c0-0.3-0.1-0.5-0.2-0.8
				c-0.1-0.2-0.3-0.5-0.4-0.6c-0.2-0.2-0.4-0.3-0.6-0.4c-0.2-0.1-0.5-0.2-0.8-0.2c-0.3,0-0.5,0.1-0.8,0.2c-0.2,0.1-0.5,0.2-0.6,0.4
				c-0.2,0.2-0.3,0.4-0.4,0.6c-0.1,0.2-0.2,0.5-0.2,0.8c0,0.3,0.1,0.5,0.2,0.8c0.1,0.2,0.3,0.5,0.4,0.6c0.2,0.2,0.4,0.3,0.6,0.4
				c0.2,0.1,0.5,0.2,0.8,0.2c0.3,0,0.5-0.1,0.7-0.2c0.2-0.1,0.5-0.2,0.6-0.4s0.3-0.4,0.4-0.6C145.1,49,145.1,48.8,145.1,48.5z"/>
			<path id="XMLID_147_" class="st1" d="M152.6,51.6h-1.2l-1.2-2.1h-1.5v2.1h-1v-6.1h2.7c0,0,0,0,0.1,0c0,0,0.1,0,0.1,0
				c0.1,0,0.1,0,0.2,0c0.1,0,0.1,0,0.1,0c0.2,0.1,0.4,0.2,0.6,0.3c0.2,0.1,0.3,0.3,0.4,0.5c0.1,0.2,0.2,0.3,0.2,0.5
				c0.1,0.2,0.1,0.4,0.1,0.6c0,0.1,0,0.3-0.1,0.5c0,0.2-0.1,0.3-0.2,0.5c-0.1,0.2-0.2,0.3-0.3,0.4c-0.1,0.1-0.3,0.3-0.5,0.4
				L152.6,51.6z M151.2,47.5c0-0.2,0-0.4-0.1-0.5c-0.1-0.2-0.2-0.3-0.4-0.4c0,0-0.1,0-0.2-0.1c-0.1,0-0.1,0-0.1,0h-1.6v1.9h1.6
				c0.1,0,0.2,0,0.3-0.1c0.1-0.1,0.2-0.1,0.3-0.2c0.1-0.1,0.1-0.2,0.2-0.3C151.2,47.7,151.2,47.6,151.2,47.5z"/>
			<path id="XMLID_145_" class="st1" d="M159.2,51.5l-4.1-3.6v3.6h-1v-6.1l4.1,3.6v-3.6h1V51.5z"/>
			<path id="XMLID_143_" class="st1" d="M161.9,51.5h-1v-6.1h1V51.5z"/>
			<path id="XMLID_140_" class="st1" d="M168.7,51.5h-1l-0.4-1H165l-0.4,1h-1l2.6-6L168.7,51.5z M166.9,49.6l-0.7-1.7l-0.7,1.7
				H166.9z"/>
		</g>
		<g id="XMLID_127_">
			<path id="XMLID_137_" class="st1" d="M20.4,20.6c0.1,0.2,0.1,0.3,0.1,0.5c0,0.1,0,0.3-0.1,0.4l-6.7,16.4
				c-0.2,0.5-0.6,0.8-1.2,0.8c-0.6,0-1-0.3-1.2-0.8L4.6,21.5c-0.1-0.1-0.1-0.3-0.1-0.4c0-0.2,0-0.3,0.1-0.5c0.2-0.3,0.4-0.5,0.7-0.6
				c0.2,0,0.3-0.1,0.5-0.1c0.2,0,0.4,0,0.5,0.1c0.3,0.1,0.5,0.4,0.7,0.7l5.4,13.4L18,20.7c0.1-0.3,0.4-0.5,0.7-0.7
				c0.2-0.1,0.4-0.1,0.5-0.1c0.1,0,0.3,0,0.4,0.1C20,20.1,20.2,20.3,20.4,20.6z"/>
			<path id="XMLID_135_" class="st1" d="M24.9,22.2v5.9h7.4c0.4,0,0.7,0.1,0.9,0.3c0.3,0.2,0.4,0.5,0.4,0.8c0,0.3-0.1,0.6-0.4,0.8
				c-0.3,0.2-0.6,0.3-0.9,0.3h-7.4v5.9h8.8c0.4,0,0.7,0.1,0.9,0.3c0.3,0.2,0.4,0.5,0.4,0.8c0,0.3-0.1,0.6-0.4,0.8
				c-0.3,0.2-0.6,0.3-0.9,0.3H23.7c-0.4,0-0.7-0.1-0.9-0.3c-0.3-0.2-0.4-0.5-0.4-0.8V21c0-0.3,0.1-0.6,0.4-0.8
				c0.3-0.2,0.6-0.3,0.9-0.3h10.1c0.4,0,0.7,0.1,0.9,0.3c0.3,0.2,0.4,0.5,0.4,0.8c0,0.3-0.1,0.6-0.4,0.8c-0.3,0.2-0.6,0.3-0.9,0.3
				H24.9z"/>
			<path id="XMLID_133_" class="st1" d="M49.8,25v0.3c0,1.5-0.5,2.7-1.4,3.5c-0.9,0.8-2.2,1.3-4,1.5l5.1,6.5
				c0.2,0.2,0.2,0.4,0.2,0.7c0,0.1,0,0.1,0,0.2c-0.1,0.3-0.2,0.6-0.5,0.7c-0.2,0.1-0.5,0.2-0.8,0.2c-0.5,0-0.8-0.2-1.1-0.5l-6.5-8.2
				c-0.2-0.2-0.3-0.4-0.3-0.7c0-0.2,0.1-0.4,0.2-0.5c0.2-0.4,0.6-0.6,1.2-0.6c2.3,0,3.9-0.3,4.5-0.9c0.4-0.4,0.7-1.1,0.7-1.9V25
				c0-0.8-0.3-1.4-0.7-1.9c-0.5-0.6-1.3-0.9-2.2-0.9h-4.2v15.2c0,0.3-0.1,0.6-0.4,0.8c-0.3,0.2-0.6,0.3-0.9,0.3
				c-0.4,0-0.7-0.1-0.9-0.3c-0.3-0.2-0.4-0.5-0.4-0.8V21.1c0-0.3,0.1-0.6,0.4-0.8c0.3-0.2,0.6-0.3,0.9-0.3h5.5
				c1.7,0,3.1,0.5,4.1,1.6C49.3,22.5,49.8,23.6,49.8,25z"/>
			<path id="XMLID_130_" class="st1" d="M57.8,19.9c2.9,0,5.4,0.9,7.5,2.7c2.1,1.8,3.1,4,3.1,6.6c0,2.6-1,4.8-3.1,6.6
				c-2.1,1.8-4.5,2.7-7.5,2.7h-4.6c-0.4,0-0.7-0.1-0.9-0.3c-0.3-0.2-0.4-0.5-0.4-0.8V21.1c0-0.3,0.1-0.6,0.4-0.8
				c0.3-0.2,0.6-0.3,0.9-0.3H57.8z M57.8,36.3c2.2,0,4.1-0.7,5.6-2.1c1.5-1.4,2.3-3,2.3-5c0-1.9-0.8-3.6-2.3-5
				c-1.6-1.4-3.4-2.1-5.6-2.1h-3.3v14H57.8z"/>
			<path id="XMLID_128_" class="st1" d="M73.8,22.2v5.9h7.4c0.4,0,0.7,0.1,0.9,0.3c0.3,0.2,0.4,0.5,0.4,0.8c0,0.3-0.1,0.6-0.4,0.8
				c-0.3,0.2-0.6,0.3-0.9,0.3h-7.4v5.9h8.8c0.4,0,0.7,0.1,0.9,0.3c0.3,0.2,0.4,0.5,0.4,0.8c0,0.3-0.1,0.6-0.4,0.8
				c-0.3,0.2-0.6,0.3-0.9,0.3H72.5c-0.4,0-0.7-0.1-0.9-0.3c-0.3-0.2-0.4-0.5-0.4-0.8V21c0-0.3,0.1-0.6,0.4-0.8
				c0.3-0.2,0.6-0.3,0.9-0.3h10.1c0.4,0,0.7,0.1,0.9,0.3c0.3,0.2,0.4,0.5,0.4,0.8c0,0.3-0.1,0.6-0.4,0.8c-0.3,0.2-0.6,0.3-0.9,0.3
				H73.8z"/>
		</g>
		<g id="XMLID_115_">
			<path id="XMLID_125_" class="st1" d="M117.8,22.3c-2.1,0-4,0.7-5.5,2.1c-1.5,1.4-2.3,3-2.3,5c0,1.9,0.8,3.6,2.3,5
				c1.5,1.4,3.3,2.1,5.5,2.1c1.3,0,2.5-0.3,3.6-0.8c1.1-0.5,2.1-1.3,2.8-2.3c0.2-0.3,0.5-0.4,0.8-0.5c0.1,0,0.2,0,0.3,0
				c0.3,0,0.5,0.1,0.7,0.2c0.3,0.2,0.5,0.4,0.6,0.7c0,0.1,0,0.2,0,0.2c0,0.2-0.1,0.4-0.2,0.6c-1,1.3-2.2,2.3-3.7,3
				c-1.5,0.7-3.2,1.1-4.9,1.1c-2.9,0-5.3-0.9-7.3-2.7c-2-1.8-3-4-3-6.6c0-2.6,1-4.8,3-6.6c2-1.8,4.5-2.7,7.3-2.7
				c1.7,0,3.3,0.4,4.9,1.1c1.5,0.7,2.8,1.7,3.7,3c0.1,0.2,0.2,0.4,0.2,0.6c0,0.1,0,0.2,0,0.2c-0.1,0.3-0.3,0.6-0.6,0.7
				c-0.2,0.1-0.5,0.2-0.7,0.2c-0.1,0-0.2,0-0.3,0c-0.4-0.1-0.6-0.2-0.8-0.5c-0.7-1-1.7-1.7-2.8-2.3
				C120.3,22.5,119.1,22.3,117.8,22.3z"/>
			<path id="XMLID_123_" class="st1" d="M141.5,25v0.3c0,1.5-0.5,2.7-1.4,3.5c-0.9,0.8-2.2,1.3-4,1.5l5.1,6.5
				c0.2,0.2,0.2,0.4,0.2,0.7c0,0.1,0,0.1,0,0.2c-0.1,0.3-0.2,0.6-0.5,0.7c-0.2,0.1-0.5,0.2-0.8,0.2c-0.5,0-0.8-0.2-1.1-0.5l-6.5-8.2
				c-0.2-0.2-0.3-0.4-0.3-0.7c0-0.2,0.1-0.4,0.2-0.5c0.2-0.4,0.6-0.6,1.2-0.6c2.3,0,3.9-0.3,4.5-0.9c0.4-0.4,0.7-1.1,0.7-1.9V25
				c0-0.8-0.3-1.4-0.7-1.9c-0.5-0.6-1.3-0.9-2.2-0.9h-4.2v15.2c0,0.3-0.1,0.6-0.4,0.8c-0.3,0.2-0.6,0.3-0.9,0.3
				c-0.4,0-0.7-0.1-0.9-0.3c-0.3-0.2-0.4-0.5-0.4-0.8V21.1c0-0.3,0.1-0.6,0.4-0.8c0.3-0.2,0.6-0.3,0.9-0.3h5.5
				c1.7,0,3.1,0.5,4.1,1.6C140.9,22.5,141.4,23.6,141.5,25z"/>
			<path id="XMLID_121_" class="st1" d="M146.1,22.2v5.9h7.4c0.4,0,0.7,0.1,0.9,0.3c0.3,0.2,0.4,0.5,0.4,0.8c0,0.3-0.1,0.6-0.4,0.8
				c-0.3,0.2-0.6,0.3-0.9,0.3h-7.4v5.9h8.8c0.4,0,0.7,0.1,0.9,0.3c0.3,0.2,0.4,0.5,0.4,0.8s-0.1,0.6-0.4,0.8
				c-0.3,0.2-0.6,0.3-0.9,0.3h-10.1c-0.4,0-0.7-0.1-0.9-0.3c-0.3-0.2-0.4-0.5-0.4-0.8V21c0-0.3,0.1-0.6,0.4-0.8
				c0.3-0.2,0.6-0.3,0.9-0.3h10.1c0.4,0,0.7,0.1,0.9,0.3c0.3,0.2,0.4,0.5,0.4,0.8c0,0.3-0.1,0.6-0.4,0.8c-0.3,0.2-0.6,0.3-0.9,0.3
				H146.1z"/>
			<path id="XMLID_119_" class="st1" d="M176,20.3c0.2,0.2,0.3,0.5,0.3,0.7v16.4c0,0.3-0.1,0.6-0.4,0.8c-0.3,0.2-0.6,0.3-0.9,0.3
				c-0.4,0-0.7-0.1-0.9-0.3c-0.3-0.2-0.4-0.5-0.4-0.8V26.3c-0.8,2.2-1.7,4.2-2.5,6l-2.5,5.4c-0.2,0.5-0.6,0.7-1.2,0.7
				c-0.6,0-1-0.2-1.2-0.7l-2.5-5.4c-0.8-1.8-1.7-3.8-2.5-5.9v11c0,0.3-0.1,0.6-0.4,0.8c-0.3,0.2-0.6,0.3-0.9,0.3
				c-0.4,0-0.7-0.1-0.9-0.3c-0.3-0.2-0.4-0.5-0.4-0.8V21c0-0.3,0.1-0.5,0.3-0.7c0.2-0.2,0.5-0.3,0.8-0.4c0.1,0,0.2,0,0.3,0
				c0.2,0,0.4,0,0.6,0.1c0.3,0.1,0.5,0.3,0.6,0.6c3.1,6.9,5.2,11.6,6.3,14.2c1.1-2.6,3.2-7.4,6.3-14.2c0.1-0.3,0.3-0.4,0.6-0.6
				c0.2-0.1,0.4-0.1,0.6-0.1c0.1,0,0.2,0,0.3,0C175.5,20,175.8,20.1,176,20.3z"/>
			<path id="XMLID_116_" class="st1" d="M195.6,37c0.1,0.3,0.1,0.6,0,0.9c-0.1,0.3-0.4,0.5-0.7,0.6c-0.1,0.1-0.3,0.1-0.5,0.1
				c-0.3,0-0.5-0.1-0.7-0.2c-0.2-0.1-0.4-0.3-0.5-0.5l-2.3-5.1H183l-2.3,5.1c-0.1,0.3-0.4,0.5-0.7,0.6c-0.3,0.1-0.7,0.1-1,0
				c-0.3-0.1-0.6-0.3-0.7-0.6c-0.1-0.3-0.1-0.6,0-0.9l7.4-16.4c0.1-0.2,0.3-0.4,0.5-0.5c0.2-0.1,0.5-0.2,0.7-0.2
				c0.3,0,0.5,0.1,0.7,0.2c0.2,0.1,0.4,0.3,0.5,0.5L195.6,37z M189.8,30.5l-2.8-6.3l-2.8,6.3H189.8z"/>
		</g>
		<g id="XMLID_3_">
			<path id="XMLID_114_" class="st2" d="M99.1,35.7c-0.3,0.8,0.2,1.7,0.9,2.1c0.8,0.3,1.6-0.1,1.8-0.8c0.1-0.8,0.9-4.5,0.3-4.8
				C101.4,31.8,99.3,34.9,99.1,35.7z"/>
			<path id="XMLID_113_" class="st2" d="M98.2,34.3c0.7,0.4,1.5,0.1,1.9-0.6c0.2-0.8,1.4-4.3,0.8-4.7c-0.7-0.5-3.1,2.4-3.4,3.1
				C97.2,32.8,97.5,33.8,98.2,34.3z"/>
			<path id="XMLID_112_" class="st2" d="M98.7,30.2c0.3-0.8,1.9-4.1,1.4-4.6c-0.6-0.5-3.3,2-3.7,2.8c-0.4,0.7-0.2,1.7,0.5,2.2
				C97.5,31.1,98.3,30.9,98.7,30.2z"/>
			<path id="XMLID_111_" class="st2" d="M97.7,26.6c0.4-0.7,2.3-3.9,1.8-4.4c-0.5-0.6-3.5,1.6-4,2.3c-0.5,0.6-0.4,1.7,0.2,2.2
				C96.4,27.3,97.3,27.2,97.7,26.6z"/>
			<path id="XMLID_110_" class="st2" d="M95.2,22.8c0.6,0.6,1.4,0.6,2,0c0.5-0.7,2.7-3.6,2.3-4.2c-0.5-0.7-3.7,1.2-4.2,1.9
				C94.7,21.2,94.7,22.2,95.2,22.8z"/>
			<path id="XMLID_109_" class="st2" d="M98.1,36.2c-0.8-0.2-4.6-1-4.8-0.2c-0.2,1,3.6,3.2,4.5,3.3c0.8,0.2,1.5-0.3,1.6-1.2
				C99.5,37.3,98.9,36.5,98.1,36.2z"/>
			<path id="XMLID_108_" class="st2" d="M95.9,35.6c0.8,0.3,1.5-0.2,1.7-1c0.2-0.8-0.3-1.7-1-2.1c-0.8-0.3-4.5-1.5-4.7-0.7
				C91.5,32.8,95.1,35.3,95.9,35.6z"/>
			<path id="XMLID_8_" class="st2" d="M94.3,31.6c0.8,0.4,1.5,0,1.8-0.8c0.2-0.8-0.1-1.8-0.8-2.2c-0.7-0.3-4.3-2-4.6-1.2
				C90.3,28.3,93.5,31.3,94.3,31.6z"/>
			<path id="XMLID_7_" class="st2" d="M93.2,27.5c0.7,0.5,1.5,0.2,1.9-0.6c0.3-0.8,0.1-1.7-0.6-2.2c-0.7-0.4-4-2.5-4.4-1.7
				C89.6,23.8,92.5,27.1,93.2,27.5z"/>
			<path id="XMLID_6_" class="st2" d="M94.5,22.9c0.4-0.7,0.3-1.7-0.3-2.3c-0.6-0.5-3.7-2.9-4.2-2.2c-0.6,0.8,1.9,4.4,2.6,4.9
				C93.2,23.9,94.1,23.6,94.5,22.9z"/>
			<path id="XMLID_5_" class="st2" d="M94.7,20.1c0.8,0,1.4-0.7,1.4-1.6c0-0.8-0.1-5-0.8-5.2c-0.8-0.2-2,4.1-2,5
				C93.3,19.3,93.9,20.1,94.7,20.1z"/>
			<path id="XMLID_4_" class="st2" d="M104,41.8c-0.7-0.4-3.3-2.3-4.1-3.8c0,0,0,0,0,0c-0.1,0.4,0.2,0.9,0.4,1.2
				c0.3,0.5,0.7,1,1,1.4c0.6,0.7,1.4,1.4,2.2,1.9c0.5,0.3,1.1,0.6,1.7,0.8c0.1-0.3,0.2-0.6,0.4-0.9C105,42.3,104.5,42,104,41.8z"/>
		</g>
	</g>
</g>
</svg>
